<?xml version="1.0" encoding="utf-8"?>
<!-- Generator: Adobe Illustrator 16.0.0, SVG Export Plug-In . SVG Version: 6.00 Build 0)  -->
<!DOCTYPE svg PUBLIC "-//W3C//DTD SVG 1.1//EN" "http://www.w3.org/Graphics/SVG/1.1/DTD/svg11.dtd">
<svg version="1.1" id="Capa_1" xmlns="http://www.w3.org/2000/svg" xmlns:xlink="http://www.w3.org/1999/xlink" x="0px" y="0px"
	 width="404.889px" height="106.898px" viewBox="-3.653 -5.385 404.889 106.898"
	 enable-background="new -3.653 -5.385 404.889 106.898" xml:space="preserve">
<g>
	<path fill="#941A1D" d="M398.974,3.357c-1.286-2.042-3.448-2.211-5.498-2.527C395.076,2.784,396.764,3.619,398.974,3.357z"/>
	<path fill="#941A1D" d="M393.435,0.789c-0.008,0.011-0.021,0.018-0.03,0.029c0.026,0.001,0.047,0.009,0.071,0.014
		C393.459,0.812,393.446,0.806,393.435,0.789z"/>
	<path fill="#941A1D" d="M-2.095,98.733c0.511-0.046,1.093-0.096,1.684-0.153C-0.976,98.529-1.551,98.529-2.095,98.733z"/>
	<path fill="#941A1D" d="M294.278-3.722l-0.265,3.418c-4.849,0.118-1.468-3.886-5.942-2.978c-1.687,4.855-7.46-0.395-8.974,2.195
		c0.029-0.384-2.17-0.499-2.051-2.013c-0.637,2.632-2.25,0.642-3.63,1.33c-0.487,0.737,0.381,0.779,0.768,1.565l-3.161,0.972
		c-1.253-0.826-1.58-2.364-0.235-2.669c-8.31-0.821-48.164-2.765-57.083-1.328c1.179,1.963,3.917,0.587,5.01,3.688
		c-2.338,1.779-3.487-0.562-4.503,1.288c-0.973-4.617-5.208-1.033-7.064-5.701l-0.64,2.634l-1.196-1.591
		c-10.348,2.88-2.354,1.368-11.574,0.88c-5.324,0.48-7.805,4.159-10.789,2.858c0.44,0.021,1.638,1.611,0.27,2.3
		c-0.27-2.3-3.653,1.707-4.36-0.611c-1.348,0.311-5.734,0.075-4.205,3.206c-0.767-1.561-4.686-2.151-2.378-3.548
		c-1.318-0.074-2.603-0.52-3.543,0.19l1.706,0.854c-4.448,0.522-6.91-1.883-9.77,1.009l1.664,1.229
		c-2.659,0.237-4.884,0.505-5.974-2.596l2.719-0.997c-4.414,0.143-7.075,0.385-10.732,2.098l1.315,0.066
		c-4.645,3.18-29.138,6.104-33.404,10.065l2.023,2.392l-3.685,2.089c0.438,0.023,1.68-7.882,2.061-7.099
		c-7.959,0.339-49.347,2.808-56.724,1.283c-2.987-1.299-0.59-3.833-0.561-4.217c-3.597,0.955-1.521,2.589-4.592,2.424
		c-0.846-0.424,0.146-1.898,0.612-2.252c-1.342,0.306-2.601-0.516-2.687,0.618c1.694,0.852,1.024,3.863,1.764,5.802l-3.952-0.203
		l0.148-1.898c-0.882-0.045-2.159,5.213-6.053,4.251c-6.557-0.728-13.655,0.038-20.24-0.307c0.085-1.137,1.458-1.828,2.833-2.515
		c-0.883-0.046-2.223,0.264-3.047-0.541c1.618,1.987-2.742,1.376-1.487,2.205c-4.754,4.699-11.05,0.56-15.26,3.764
		c-0.312,4.17-8.088,71.688-8.016,76.644c-1.323-0.07-2.637-0.142-3.048-0.544c0.358,1.157,2.962,1.678,4.333,0.99l0.201-2.657
		c3.163-0.977,0.766,1.564,3.863,1.343c0.196,2.169-2.65,2.673-5.159,2.917c2.264,0.222,4.54,1.771,5.427-0.617
		c2.14,0.872-0.199,2.656,2.375,3.549c1.815-0.664,4.179-2.825,6.292-1.569l-0.031,0.384c5.125,2.169,7.745-3.404,12.429-1.254
		l-0.491,0.733c1.662,1.234,4.877-0.502,7.862,0.795c-0.854-0.427-1.611-1.986,0.17-2.272c3.431,1.322,5.738-0.081,8.256,1.576
		l2.364-2.161c11.881,0.246,58.753-3.449,70.68-3.959l-0.463,0.346c18.164-1.323,55.482-1.69,74.229-4.891
		c2.937,2.054,6.936,1.501,9.976,2.045c-1.696-0.85-1.141-2.344,0.178-2.276c9.24,0.109,0.6-1.456,9.93-2.484
		c10.729-2.102,51.927-0.473,61.501,1.175c5.084-3.159,11.52-0.917,16.518-2.938l-0.494,0.733
		c5.379-1.239,35.969,1.185,42.228-0.009l-0.849-0.431c5.439-1.994,4.744,1.395,9.068,2.385c-0.617-3.454,4.041-5.488,5.825-5.774
		l-0.057,0.759c2.688-0.623,8.751-3.718,13.194-4.246l-0.147,1.898c3.683-2.089,10.677-1.342,13.341-1.581
		c6.112,0.697,15.57,3.861,23.692,1.24l5.35,5.323l0.763-0.546c0,0,7.557-65.327-3.418-79.062l0.146-1.892L393.3,3.833
		c-2.571-0.894-3.721,1.315-3.574-0.575l3.507,0.181c-2.575-0.512-0.797-1.54,0.169-2.624c-1.074-0.166-2.118-0.379-2.981-0.947
		c-0.493,0.735,0.385,0.78,0.789,1.185c-1.372,0.685-3.271,2.49-4.964,1.642c-2.632-0.139-0.214-3.06-3.283-3.221
		c-16.207-1.231-31.92-3.2-48.272-2.539c-0.384-0.778,0.059-0.758,0.528-1.115c-4.918,0.886-9.302,0.654-13.778,1.564
		c-1.256-0.828-1.616-1.989-1.994-2.768C320.211-3.827,294.689-3.318,294.278-3.722z"/>
</g>
</svg>
