<?xml version="1.0" encoding="utf-8"?>
<!-- Generator: Adobe Illustrator 16.0.4, SVG Export Plug-In . SVG Version: 6.00 Build 0)  -->
<!DOCTYPE svg PUBLIC "-//W3C//DTD SVG 1.1//EN" "http://www.w3.org/Graphics/SVG/1.1/DTD/svg11.dtd">
<svg version="1.1" id="Capa_1" xmlns="http://www.w3.org/2000/svg" xmlns:xlink="http://www.w3.org/1999/xlink" x="0px" y="0px"
	 width="319.594px" height="90px" viewBox="120.203 0 319.594 90" enable-background="new 120.203 0 319.594 90"
	 xml:space="preserve">
<path fill="#94000C" d="M191.358,11.545c32.145-5.841,71.402,1.654,103.853-3.654c38.938-7.075,81.127-7.133,120.071-7.138
	c0,3.535-3.245,8.811,0.002,10.58c12.98,5.3,12.98,12.359,12.98,19.429c0,3.538-9.733-0.005-6.491,3.531
	c-9.733,0.001-25.969,1.767-16.225,5.299c3.247,3.537,16.225-0.004,19.469,5.299c3.25,5.304-3.241,10.606,0,15.906
	c3.25,0,9.741-0.003,12.988-0.003c3.239,3.541-3.244,10.613,0,10.613c9.736,3.533-24.001,1.765-11.028,1.762
	c0,3.536,3.252,7.069-3.239,8.841c-113.585,3.547-183.694,10.631-297.28,5.336c-12.98-1.765-3.242-8.836,6.491-14.139
	c-3.242,1.77-3.245-3.536-6.491-1.767c0-5.306,6.489-14.615,19.472-15.913c-3.245,0-6.489,0-9.736,0c-3.247-1.298,0-5.303,0-8.837
	c3.25,0,6.494,0,6.494-1.77c0-1.764,0-5.303,0-7.069c-3.894,0-9.736,0.002-12.978,0.002c3.242,0,6.489-0.002,6.489-1.767
	c0-1.767,0-5.304,0-7.076c6.489-1.766,15.574,1.771,22.062-0.002v-5.298c-6.489-1.768-15.903,0.001-22.395,0.004
	c3.25-1.772,3.409-3.322,3.409-6.859c9.733-1.777,19.634,3.627,29.365-1.564c-3.245,0-6.489,0-9.731,0
	C165.397,6.208,181.622,13.314,191.358,11.545z"/>
</svg>
