<svg version="1.1" id="Capa_1" xmlns="http://www.w3.org/2000/svg" xmlns:xlink="http://www.w3.org/1999/xlink" x="0px" y="0px"
	 width="451.471px" height="90px" viewBox="148.029 0 451.471 90" xml:space="preserve">
<path fill="#94000C" d="M542.77,84.036c-23.334,2.431-250.481-6.993-273.984-5.034c-28.266,2.943-58.19-0.311-85.812-3.312
	c0.323-2.973,3.11-7.182,0.97-8.92c-8.722-5.459-8.075-11.408-7.428-17.354c0.323-2.974,6.904,0.751,4.928-2.474
	c6.904,0.752,18.582,0.517,11.993-3.206c-1.979-3.226-11.509-1.251-13.324-5.96c-1.82-4.711,3.27-8.672,1.454-13.378
	c-2.305-0.251-6.909-0.751-9.211-1.001c-1.974-3.228,3.272-8.675,0.97-8.925c-6.581-3.725-15.952-3.237-25.153-4.237
	c0.323-2.974-1.661-6.197,3.105-7.185c80.889,5.786,364.402,8.847,444.48,22.07c9.045,2.485,1.492,7.68-5.896,11.39
	c2.461-1.239,1.976,3.224,4.442,1.986c-0.484,4.461-5.896,11.393-15.268,11.879c2.302,0.25,4.602,0.5,6.907,0.751
	c2.141,1.735-0.485,4.461-0.809,7.431c-2.305-0.25-4.604-0.5-4.767,0.99c-0.161,1.484-0.485,4.459-0.646,5.944
	c2.3,0.25,6.907,0.751,9.206,1.001c-2.3-0.25-4.602-0.5-4.763,0.984c-0.162,1.487-0.485,4.461-0.647,5.951
	c-4.766,0.983-11.347-2.74-16.115-1.752l-0.484,4.456c4.445,1.989,11.511,1.251,16.115,1.752c-2.466,1.238-2.628,2.724-2.952,5.699
	c-7.066,0.737-13.487-4.478-20.875-0.763c2.3,0.25,4.602,0.5,6.902,0.75C560.698,90.502,549.838,83.3,542.77,84.036z"/>
</svg>
