<svg version="1.1" id="Capa_1" xmlns="http://www.w3.org/2000/svg" xmlns:xlink="http://www.w3.org/1999/xlink" x="0px" y="0px"
	 width="560px" height="68.2px" viewBox="0 10.9 560 68.2" xml:space="preserve">
<path fill="#94000C" d="M111.696,24.149c50.73-4.924,112.855-0.619,164.078-5.177c61.455-5.963,128.125-7.06,189.668-8.073
	c0.039,2.474-5.029,6.27,0.122,7.426c20.572,3.375,20.653,8.327,20.734,13.276c0.041,2.475-15.383,0.253-10.217,2.644
	c-15.383,0.254-41.021,1.915-25.581,4.132c5.17,2.393,25.641-0.422,30.825,3.207c5.196,3.628-5.002,7.511,0.185,11.137
	c5.134-0.085,15.393-0.254,20.522-0.338c5.16,2.396-5.008,7.514,0.123,7.429c15.424,2.222,35.922,0.646,56.422,0.308
	c0.04,2.477,5.222,4.865-5.016,6.273C374.101,71.821,189.556,79.812,10,79.049c-20.532-0.898-5.226-6.101,10.096-10.068
	c-5.104,1.325-5.165-2.39-10.279-1.067C9.755,64.201,19.913,57.846,40.41,56.268c-5.129,0.085-10.253,0.169-15.388,0.254
	c-5.149-1.151-0.061-3.713-0.102-6.186c5.135-0.085,10.258-0.169,10.238-1.41c-0.02-1.235-0.061-3.712-0.081-4.949
	c-5.124,0.084-15.388,0.254-20.512,0.338c5.124-0.084,10.253-0.169,10.233-1.405c-0.02-1.238-0.061-3.713-0.082-4.954
	c10.238-1.404,25.662,0.819,35.905-0.591l-0.061-3.709c-10.285-1.07-25.647,0.422-35.906,0.591c5.115-1.323,5.095-2.56,5.054-5.037
	c15.362-1.491,30.811,1.972,46.128-1.998c-5.125,0.084-10.254,0.169-15.378,0.253C70.609,21.108,96.327,25.641,111.696,24.149z"/>
</svg>
