<?xml version="1.0" encoding="utf-8"?>
<!-- Generator: Adobe Illustrator 16.0.4, SVG Export Plug-In . SVG Version: 6.00 Build 0)  -->
<!DOCTYPE svg PUBLIC "-//W3C//DTD SVG 1.1//EN" "http://www.w3.org/Graphics/SVG/1.1/DTD/svg11.dtd">
<svg version="1.1" id="Layer_1" xmlns="http://www.w3.org/2000/svg" xmlns:xlink="http://www.w3.org/1999/xlink" x="0px" y="0px"
	 width="144px" height="144px" viewBox="0 0 144 144" enable-background="new 0 0 144 144" xml:space="preserve">
<g>
	<path fill="#FFFFFF" d="M43.5,138.277c-0.298,0-0.599-0.054-0.889-0.164c-0.97-0.369-1.61-1.299-1.61-2.336V8.222
		c0-1.038,0.641-1.967,1.61-2.336c0.29-0.11,0.591-0.164,0.889-0.164c0.7,0,1.383,0.294,1.867,0.837l56.806,63.778
		c0.844,0.948,0.844,2.377,0,3.326L45.367,137.44C44.883,137.983,44.199,138.277,43.5,138.277z"/>
	<path fill="#92000A" d="M43,8.222L99.806,72L43,135.777V8 M43.499,3.222c-0.597,0-1.449,0.106-2.028,0.327
		C39.532,4.288,38,6.147,38,8.222v127.555c0,2.075,1.532,3.935,3.471,4.673c0.58,0.221,1.307,0.327,1.903,0.327
		c1.399,0,2.83-0.588,3.797-1.675l56.836-63.777c1.688-1.896,1.704-4.755,0.016-6.651L47.226,4.896
		C46.258,3.81,44.898,3.222,43.499,3.222L43.499,3.222z"/>
</g>
</svg>
