<?xml version="1.0" encoding="utf-8"?>
<!-- Generator: Adobe Illustrator 26.0.2, SVG Export Plug-In . SVG Version: 6.00 Build 0)  -->
<svg version="1.1" xmlns="http://www.w3.org/2000/svg" xmlns:xlink="http://www.w3.org/1999/xlink" x="0px" y="0px"
	 viewBox="0 0 1919.9 299.9" style="enable-background:new 0 0 1919.9 299.9;" xml:space="preserve">
<style type="text/css">
	.st0{display:none;}
	.st1{fill:url(#SVGID_1_);enable-background:new    ;}
	.st2{fill:none;stroke:#000000;stroke-width:2;stroke-miterlimit:10;}
	.st3{fill:none;stroke:#000000;stroke-width:6;stroke-miterlimit:10;}
	.st4{fill:none;stroke:#000000;stroke-miterlimit:10;}
	.st5{fill:none;stroke:#000000;stroke-width:3;stroke-miterlimit:10;}
	.st6{fill:none;stroke:#000000;stroke-width:4;stroke-miterlimit:10;}
	.st7{fill:none;stroke:#000000;stroke-width:7;stroke-miterlimit:10;}
	.st8{clip-path:url(#SVGID_00000116194514877138270220000008995448544964302484_);}
	.st9{fill:none;stroke:#ED1C24;stroke-width:4.1654;}
	.st10{clip-path:url(#SVGID_00000039122813095673630810000014700597191516386701_);}
	.st11{fill:#FFFFFF;}
	.st12{clip-path:url(#SVGID_00000147934735930890120150000004214393593556366995_);}
	.st13{clip-path:url(#SVGID_00000124125027640231402750000002730485869511298203_);}
	.st14{clip-path:url(#SVGID_00000105395318425936652570000002347199181482854827_);}
</style>
<g id="Layer_2" class="st0">
	
		<image style="display:inline;overflow:visible;enable-background:new    ;" width="1920" height="300" xlink:href="E61C68A1078FBDBE.jpg"  transform="matrix(1 0 0 1 7.981 377.6768)">
	</image>
</g>
<g id="Layer_3">
	<linearGradient id="SVGID_1_" gradientUnits="userSpaceOnUse" x1="-2.5579" y1="149.1508" x2="1920.8595" y2="149.1508">
		<stop  offset="0" style="stop-color:#4D4D4D"/>
		<stop  offset="0.1694" style="stop-color:#3C3C3C"/>
		<stop  offset="0.4871" style="stop-color:#222222"/>
		<stop  offset="0.7737" style="stop-color:#121212"/>
		<stop  offset="1" style="stop-color:#0D0D0D"/>
	</linearGradient>
	<rect x="-2.6" y="-3.8" class="st1" width="1923.4" height="305.9"/>
	<g>
		<line class="st2" x1="-0.2" y1="101.6" x2="282.1" y2="300.1"/>
		<line class="st2" x1="452.7" y1="-1.2" x2="956.5" y2="304.1"/>
		<line class="st2" x1="937.5" y1="-1.2" x2="1612.9" y2="304.1"/>
		<line class="st3" x1="1013.4" y1="299.1" x2="1588" y2="-1.2"/>
		<line class="st4" x1="1180" y1="-1.2" x2="1695.7" y2="303.1"/>
		<line class="st4" x1="1165" y1="-3.2" x2="1684.8" y2="307.1"/>
		<line class="st5" x1="1128.1" y1="-1.2" x2="1645.8" y2="302.1"/>
		<line class="st5" x1="1060.2" y1="-2.2" x2="1601" y2="308.1"/>
		<line class="st6" x1="1036.3" y1="-0.2" x2="1585" y2="313.1"/>
		<line class="st7" x1="1047.3" y1="-2.2" x2="1573" y2="299.1"/>
	</g>
</g>
<g id="Layer_1">
	<g>
		<g>
			<defs>
				<rect id="SVGID_00000112622398819615532380000011679225295621872288_" x="1139.6" width="348.9" height="299.9"/>
			</defs>
			<clipPath id="SVGID_00000046332159896157846760000001798796856524293529_">
				<use xlink:href="#SVGID_00000112622398819615532380000011679225295621872288_"  style="overflow:visible;"/>
			</clipPath>
			<g style="clip-path:url(#SVGID_00000046332159896157846760000001798796856524293529_);">
				<line class="st9" x1="1158.6" y1="302.8" x2="1468.3" y2="-6.8"/>
				<line class="st9" x1="1468.3" y1="302.8" x2="1158.6" y2="-6.8"/>
			</g>
		</g>
		<g>
			<defs>
				<rect id="SVGID_00000086664276541258030370000004395860593062790293_" x="1139.6" width="348.9" height="299.9"/>
			</defs>
			<clipPath id="SVGID_00000157301460659839209380000007104073692993707925_">
				<use xlink:href="#SVGID_00000086664276541258030370000004395860593062790293_"  style="overflow:visible;"/>
			</clipPath>
			<g style="clip-path:url(#SVGID_00000157301460659839209380000007104073692993707925_);">
				<path class="st11" d="M1320.2,57.8l-0.5-9.4V35.3h12.9v41.2H1320l-14.7-22.4l0.5,9.4v13h-12.9V35.3h12.6L1320.2,57.8z"/>
			</g>
		</g>
		<g>
			<defs>
				<rect id="SVGID_00000165918805615394262630000016722554126334113961_" x="1139.6" width="348.9" height="299.9"/>
			</defs>
			<clipPath id="SVGID_00000104664782051078424470000016481407193344052111_">
				<use xlink:href="#SVGID_00000165918805615394262630000016722554126334113961_"  style="overflow:visible;"/>
			</clipPath>
			<g style="clip-path:url(#SVGID_00000104664782051078424470000016481407193344052111_);">
				<path class="st11" d="M1415.7,168.3V144c0-1.2,0.1-6.4,0.1-10.2h-0.1l-11.6,34.5h-5.5l-11.6-34.4h-0.1c0,3.8,0.1,9,0.1,10.2
					v24.2h-5.4v-41.1h7.9l11.7,34.7h0.1l11.7-34.7h7.9v41.1L1415.7,168.3L1415.7,168.3z"/>
			</g>
		</g>
		<g>
			<defs>
				<rect id="SVGID_00000089575900657590329010000009147690452058368649_" x="1139.6" width="348.9" height="299.9"/>
			</defs>
			<clipPath id="SVGID_00000126284306387293131610000009953717388412147871_">
				<use xlink:href="#SVGID_00000089575900657590329010000009147690452058368649_"  style="overflow:visible;"/>
			</clipPath>
			<g style="clip-path:url(#SVGID_00000126284306387293131610000009953717388412147871_);">
				<path class="st11" d="M1332.2,234.6c0,14-9.4,21.9-21.6,21.9c-12.9,0-21.6-8-21.6-22c0-12.9,8.8-21.3,21.6-21.3
					C1325.3,213.1,1332.2,223.7,1332.2,234.6z M1302.5,234.6c0,5.3,1.6,11.8,8.1,11.8c5.8,0,8.1-5,8.1-11.8c0-5.6-2.3-11.6-8.2-11.4
					C1304.4,223.2,1302.5,229.4,1302.5,234.6z"/>
			</g>
		</g>
		<g>
			<defs>
				<rect id="SVGID_00000181077092431722787120000005517006458562138778_" x="1139.6" width="348.9" height="299.9"/>
			</defs>
			<clipPath id="SVGID_00000092442543012163727050000006029528324170680485_">
				<use xlink:href="#SVGID_00000181077092431722787120000005517006458562138778_"  style="overflow:visible;"/>
			</clipPath>
			<g style="clip-path:url(#SVGID_00000092442543012163727050000006029528324170680485_);">
				<path class="st11" d="M1212.1,168.3h-5.5v-41.1h28.4v4.9h-22.9v12.6h20.1v4.9h-20.1V168.3z"/>
			</g>
		</g>
	</g>
</g>
</svg>
